<?xml version="1.0" encoding="UTF-8"?>
<svg version="1.1" xmlns="http://www.w3.org/2000/svg" width="512" height="512">
<path d="M0 0 C0.90054108 -0.00701431 1.80108215 -0.01402863 2.72891235 -0.02125549 C5.61750351 -0.03865402 8.50588962 -0.0451074 11.39453125 -0.046875 C12.38190277 -0.04754974 13.36927429 -0.04822449 14.38656616 -0.04891968 C28.87791389 -0.03317157 42.94723376 0.41971425 57.20703125 3.203125 C58.5525708 3.44458252 58.5525708 3.44458252 59.92529297 3.69091797 C108.61296249 12.50090649 153.63709033 35.94419047 189.20703125 70.203125 C190.19606445 71.15131104 190.19606445 71.15131104 191.20507812 72.11865234 C200.6933343 81.26309979 209.43323565 90.56046509 217.20703125 101.203125 C218.06509277 102.35417517 218.92316576 103.50521677 219.78125 104.65625 C225.81880521 112.84588481 231.20160427 121.34850776 236.20703125 130.203125 C236.60921875 130.91033691 237.01140625 131.61754883 237.42578125 132.34619141 C250.12358722 154.89967725 258.5848494 179.18271683 263.95703125 204.453125 C264.25528809 205.85292603 264.25528809 205.85292603 264.55957031 207.28100586 C267.82402476 223.40869868 268.61224646 239.10461064 268.58203125 255.515625 C268.58181976 256.57560699 268.58160828 257.63558899 268.58139038 258.72769165 C268.54855404 275.2316098 267.6698878 291.01828386 264.20703125 307.203125 C264.03042969 308.09741211 263.85382813 308.99169922 263.671875 309.91308594 C256.11574837 347.98756843 238.96120347 385.24584652 214.20703125 415.203125 C213.77712891 415.72777344 213.34722656 416.25242187 212.90429688 416.79296875 C195.54070978 437.93345289 195.54070978 437.93345289 185.421875 446.35546875 C183.67557848 447.8122558 181.96705148 449.31431859 180.2734375 450.83203125 C144.88668513 482.40426511 99.01920374 503.19688941 52.20703125 510.203125 C51.06580811 510.38496338 49.92458496 510.56680176 48.7487793 510.75415039 C37.89213857 512.32078025 27.14176973 512.54260912 16.18286133 512.51879883 C13.17296522 512.5156547 10.16407134 512.53913612 7.15429688 512.56445312 C-11.0698489 512.62476105 -29.04787486 510.7825067 -46.79296875 506.515625 C-47.86562988 506.26143799 -48.93829102 506.00725098 -50.04345703 505.74536133 C-93.19804161 495.14237066 -132.83125469 472.9868216 -164.79296875 442.203125 C-165.45232422 441.57100098 -166.11167969 440.93887695 -166.79101562 440.28759766 C-176.2792718 431.14315021 -185.01917315 421.84578491 -192.79296875 411.203125 C-193.65103027 410.05207483 -194.50910326 408.90103323 -195.3671875 407.75 C-201.40474271 399.56036519 -206.78754177 391.05774224 -211.79296875 382.203125 C-212.19515625 381.49591309 -212.59734375 380.78870117 -213.01171875 380.06005859 C-227.73300926 353.91251644 -237.43218208 324.89146058 -241.79296875 295.203125 C-241.97029541 293.99849609 -242.14762207 292.79386719 -242.33032227 291.55273438 C-243.92929369 279.8954519 -244.15137847 268.33126434 -244.10546875 256.578125 C-244.10273453 255.12379059 -244.10273453 255.12379059 -244.09994507 253.64007568 C-244.05459612 239.30833241 -243.63592297 225.29416988 -240.79296875 211.203125 C-240.61604492 210.30126465 -240.43912109 209.3994043 -240.25683594 208.47021484 C-238.95795588 201.99712605 -237.44639749 195.59424012 -235.79296875 189.203125 C-235.58333496 188.38312012 -235.37370117 187.56311523 -235.15771484 186.71826172 C-227.781093 158.51219499 -214.6683913 131.91042253 -197.79296875 108.203125 C-197.33841309 107.55923828 -196.88385742 106.91535156 -196.41552734 106.25195312 C-189.48257265 96.50062748 -181.92282615 87.59869207 -173.57519531 79.03222656 C-171.80098042 77.21134738 -170.04315361 75.37558571 -168.28515625 73.5390625 C-161.18089865 66.19644032 -153.764328 59.6270617 -145.56835938 53.52978516 C-143.7795399 52.1930903 -142.01232443 50.83120058 -140.24609375 49.46484375 C-125.9318549 38.52412281 -110.10647707 29.79324859 -93.79296875 22.203125 C-93.09864746 21.87747559 -92.40432617 21.55182617 -91.68896484 21.21630859 C-63.38521729 8.12702196 -31.25429321 0.16397826 0 0 Z M-144.79296875 110.203125 C-149.84870362 116.84780511 -151.09586187 123.20663122 -151.05366516 131.42526245 C-151.05749071 132.2252696 -151.06131626 133.02527674 -151.06525773 133.84952652 C-151.07553107 136.51547491 -151.0716064 139.18120565 -151.06762695 141.84716797 C-151.07197657 143.76460976 -151.07716056 145.68204982 -151.08311462 147.5994873 C-151.0964892 152.79787804 -151.09708498 157.996196 -151.09455132 163.19460058 C-151.09348053 167.53846321 -151.09836778 171.88231118 -151.10315675 176.22617066 C-151.11424669 186.47647522 -151.11469227 196.72674313 -151.10864258 206.97705078 C-151.10260294 217.54199421 -151.11491477 228.10680445 -151.13621265 238.67172515 C-151.15384146 247.75134595 -151.15982797 256.8309244 -151.1565749 265.91056168 C-151.15476389 271.32944811 -151.15738012 276.74823955 -151.17128944 282.16711044 C-151.18388387 287.26431929 -151.18190832 292.36132087 -151.16887856 297.45852661 C-151.16651672 299.32531937 -151.16923333 301.1921268 -151.17750168 303.05890274 C-151.22850221 315.47208377 -151.23988286 326.49084202 -142.0390625 336.01953125 C-134.38628604 343.19307317 -127.26392656 344.65692878 -117.0625 344.54370117 C-116.01769974 344.54413925 -114.97289948 344.54457733 -113.8964386 344.54502869 C-110.46592081 344.54294979 -107.03590047 344.51966071 -103.60546875 344.49609375 C-101.21793891 344.49049461 -98.83040562 344.48622602 -96.44287109 344.48323059 C-90.17598868 344.47180691 -83.90931669 344.44236083 -77.64251709 344.40911865 C-71.24087368 344.37836446 -64.83919608 344.36471382 -58.4375 344.34960938 C-45.88923075 344.31748894 -33.34111729 344.26632241 -20.79296875 344.203125 C-21.12296875 350.473125 -21.45296875 356.743125 -21.79296875 363.203125 C-23.21609375 363.15671875 -24.63921875 363.1103125 -26.10546875 363.0625 C-28.00128096 363.02495916 -29.89711604 362.9885615 -31.79296875 362.953125 C-33.19482422 362.90285156 -33.19482422 362.90285156 -34.625 362.8515625 C-41.986011 362.7486113 -47.4689046 363.97367369 -52.8515625 369.203125 C-53.30660156 369.863125 -53.76164062 370.523125 -54.23046875 371.203125 C-54.70355469 371.863125 -55.17664063 372.523125 -55.6640625 373.203125 C-58.96663335 379.05404636 -58.01575128 386.13905072 -58.04296875 392.640625 C-58.06359375 393.86845703 -58.08421875 395.09628906 -58.10546875 396.36132812 C-58.110625 397.54533203 -58.11578125 398.72933594 -58.12109375 399.94921875 C-58.13043945 401.02872803 -58.13978516 402.1082373 -58.14941406 403.22045898 C-57.73448035 406.69254468 -56.93905126 408.45268928 -54.79296875 411.203125 C-51.25738897 413.71229446 -48.83616478 414.57866876 -44.51782227 414.58407593 C-43.47481964 414.5925354 -42.43181702 414.60099487 -41.35720825 414.60971069 C-39.65671829 414.60060165 -39.65671829 414.60060165 -37.921875 414.59130859 C-36.71973358 414.59656555 -35.51759216 414.60182251 -34.27902222 414.60723877 C-30.9897084 414.61816794 -27.70075769 414.6156234 -24.41144943 414.60610151 C-20.96512859 414.59849303 -17.51883158 414.60555382 -14.07250977 414.61026001 C-8.28560039 414.61571412 -2.49880597 414.60853507 3.28808594 414.59423828 C9.97341468 414.57791233 16.65846892 414.58320109 23.34379101 414.5997175 C29.0891692 414.61334226 34.83446488 414.61524721 40.57985401 414.60740149 C44.00891938 414.60273038 47.43785582 414.60208453 50.86691284 414.61201096 C54.69011047 414.61962042 58.5127793 414.60802724 62.3359375 414.59130859 C63.46959747 414.59738129 64.60325745 414.60345398 65.77127075 414.60971069 C66.81427338 414.60125122 67.857276 414.59279175 68.93188477 414.58407593 C69.83520035 414.58294485 70.73851593 414.58181377 71.66920471 414.58064842 C75.57397686 413.99978014 78.23279616 412.17669399 80.99243164 409.41894531 C83.65651095 404.55880786 82.67368417 398.35436537 82.64453125 392.953125 C82.66451172 391.65503906 82.68449219 390.35695313 82.70507812 389.01953125 C82.70104004 381.09681256 82.45704487 374.74264508 76.79492188 368.69482422 C72.327233 364.69192372 68.07311974 362.93482944 62.125 363.0078125 C61.19365234 363.01425781 60.26230469 363.02070313 59.30273438 363.02734375 C58.34302734 363.04410156 57.38332031 363.06085938 56.39453125 363.078125 C54.9259668 363.09166016 54.9259668 363.09166016 53.42773438 363.10546875 C51.02058064 363.12895318 48.61393382 363.1617966 46.20703125 363.203125 C46.22443359 362.27693359 46.22443359 362.27693359 46.2421875 361.33203125 C46.25121094 360.48511719 46.26023437 359.63820313 46.26953125 358.765625 C46.28113281 357.94191406 46.29273438 357.11820312 46.3046875 356.26953125 C46.22109285 353.64465924 45.99968141 351.11755773 45.70092773 348.51147461 C45.60899643 347.70383163 45.51706512 346.89618866 45.42234802 346.06407166 C45.35129349 345.44995926 45.28023895 344.83584686 45.20703125 344.203125 C45.75441641 344.20773396 46.30180157 344.21234293 46.86577415 344.21709156 C60.22151055 344.32779983 73.5771659 344.41007239 86.93326378 344.46218586 C93.39236979 344.48823813 99.85114369 344.52355746 106.31005859 344.58032227 C112.54760613 344.6347962 118.78483496 344.66457839 125.02260208 344.67751122 C127.39797606 344.68672336 129.77333334 344.70471255 132.14857101 344.73177528 C135.48533061 344.76826859 138.82078662 344.77306168 142.15771484 344.77075195 C143.13164185 344.78872833 144.10556885 344.80670471 145.10900879 344.82522583 C153.84627434 344.76012486 160.62983005 341.77183491 167.08203125 335.890625 C173.58196529 328.86946983 175.35649395 321.61932104 175.35420227 312.27255249 C175.3597173 311.06519438 175.3597173 311.06519438 175.36534375 309.83344519 C175.37636775 307.13293487 175.38022227 304.43246304 175.3840332 301.73193359 C175.39029887 299.79685342 175.39694576 297.86177444 175.40394592 295.92669678 C175.42497807 289.56832719 175.43534816 283.20995739 175.4453125 276.8515625 C175.4493605 274.66136284 175.45347744 272.4711633 175.45766258 270.2809639 C175.47671312 259.98987732 175.49094393 249.6987979 175.49927455 239.40769708 C175.50904403 227.53562658 175.5353567 215.66374268 175.57577544 203.79173791 C175.6059566 194.61110826 175.62074537 185.43053203 175.62405556 176.24985373 C175.62640394 170.76880401 175.63533677 165.28795366 175.66051674 159.80695724 C175.68383706 154.6473792 175.68801468 149.48813123 175.67775536 144.3285141 C175.67726084 142.43955765 175.68355644 140.55058474 175.6973114 138.66167831 C175.7784495 126.85432914 175.69691903 115.99719825 167.1796875 106.8046875 C160.31035109 101.2276025 152.18157564 98.08510628 143.37180042 98.07169724 C141.94489265 98.06593552 141.94489265 98.06593552 140.48915845 98.0600574 C138.93372965 98.06135713 138.93372965 98.06135713 137.34687805 98.06268311 C136.23893534 98.05971198 135.13099264 98.05674086 133.98947591 98.0536797 C130.26942489 98.04499413 126.54940606 98.04348457 122.8293457 98.04199219 C120.16506295 98.03736391 117.50078312 98.03235976 114.83650208 98.02694702 C107.59255776 98.01337706 100.34861899 98.00734101 93.10466409 98.00293636 C88.579283 98.00017157 84.05390404 97.99593378 79.5285244 97.99143219 C66.99278682 97.97924107 54.45705094 97.96894158 41.92130756 97.9655571 C40.71830901 97.96522775 40.71830901 97.96522775 39.49100746 97.96489175 C38.6871167 97.96467347 37.88322594 97.96445519 37.05497485 97.9642303 C35.4260542 97.96378684 33.79713354 97.96334027 32.16821289 97.96289062 C31.36021628 97.9626692 30.55221968 97.96244777 29.71973833 97.96221963 C16.63207003 97.95827298 3.54445747 97.94082232 -9.54318931 97.9175311 C-22.98828565 97.89379741 -36.43335405 97.88135432 -49.87847167 97.88018918 C-57.42407982 97.87927353 -64.96961537 97.87354907 -72.51520348 97.85536957 C-78.94139706 97.8399413 -85.36749559 97.83486414 -91.79370417 97.84310767 C-95.06991593 97.84700463 -98.34589717 97.84448711 -101.6220932 97.83205032 C-105.18085834 97.81933484 -108.73913538 97.82520606 -112.29789734 97.83563232 C-113.32369626 97.82757592 -114.34949519 97.81951952 -115.40637892 97.81121898 C-127.40855126 97.89323866 -136.60047062 101.14825864 -144.79296875 110.203125 Z " fill="#D46E5F" transform="translate(243.79296875,-0.203125)"/>
<path d="M0 0 C1.12457562 -0.00779995 2.24915124 -0.01559991 3.40780491 -0.02363622 C7.17820338 -0.04358884 10.94759624 -0.02777756 14.71800232 -0.01205444 C17.4201211 -0.01607837 20.12219711 -0.02755025 22.82429504 -0.03860474 C29.40258978 -0.06083103 35.98059918 -0.05603903 42.55890507 -0.04154153 C47.90485312 -0.03024779 53.25072122 -0.02871895 58.59667778 -0.03416061 C59.35764557 -0.03492678 60.11861335 -0.03569294 60.90264077 -0.03648233 C62.44853793 -0.03808096 63.99443507 -0.03970202 65.54033219 -0.04134528 C80.03382686 -0.05560074 94.52716336 -0.0392128 109.02063208 -0.01234345 C121.45775784 0.00999969 133.89465029 0.0061113 146.33177185 -0.01693726 C160.77507762 -0.04369115 175.21824483 -0.05423221 189.66157192 -0.03887594 C191.20146396 -0.03728319 192.74135601 -0.03571134 194.28124809 -0.03416061 C195.41773335 -0.03300355 195.41773335 -0.03300355 196.5771779 -0.03182311 C201.91745828 -0.02750519 207.25765079 -0.0347945 212.59791756 -0.04655838 C219.10483041 -0.06057721 225.61144166 -0.05679659 232.11831994 -0.03015466 C235.43859109 -0.0170083 238.75825498 -0.01456591 242.07853889 -0.02840042 C245.67656293 -0.04201266 249.27316119 -0.02498959 252.87109375 0 C253.92244761 -0.01115361 254.97380146 -0.02230722 256.05701452 -0.03379881 C260.8104744 0.03048228 263.11118301 0.06222208 266.99711514 2.9871006 C270.07673223 7.33618096 270.01857675 11.08381316 270.01249695 16.21313477 C270.01695363 17.38162569 270.01695363 17.38162569 270.02150035 18.57372248 C270.03019394 21.19227638 270.03169615 23.8107846 270.03318787 26.42935181 C270.03781553 28.30343219 270.04284012 30.17751163 270.04823303 32.05158997 C270.06136296 37.14869256 270.067803 42.24578198 270.07224369 47.34289885 C270.07517311 50.52580792 270.07927764 53.70871338 270.08374786 56.89162064 C270.09742358 66.84578891 270.1070902 76.79994894 270.11094975 86.75412595 C270.11543259 98.25324075 270.13299066 109.7522368 270.16195035 121.25131547 C270.18354761 130.13461024 270.19365297 139.01787155 270.19499087 147.90119231 C270.19604019 153.20935542 270.20197503 158.51740692 270.21981049 163.82554245 C270.23625763 168.81761589 270.23846302 173.80949341 270.22967148 178.80158424 C270.22889933 180.63458212 270.23326709 182.4675904 270.24312973 184.3005619 C270.2557983 186.80152089 270.25000045 189.30178062 270.23954773 191.80273438 C270.25163234 192.89257521 270.25163234 192.89257521 270.26396108 194.00443304 C270.22093279 198.40160833 269.60102809 201.16176173 266.87205505 204.63491821 C263.90938042 207.27524587 262.06742381 208.01032273 258.11467075 208.01523495 C257.15533967 208.02367489 256.19600858 208.03211483 255.20760685 208.04081053 C254.15654898 208.03480048 253.10549111 208.02879043 252.02258301 208.02259827 C250.34440818 208.03067657 250.34440818 208.03067657 248.63233083 208.03891808 C244.86976167 208.05326733 241.10754086 208.04607659 237.34495544 208.03897095 C234.65299356 208.04467087 231.96105701 208.05153259 229.269104 208.05976868 C222.70797937 208.07697832 216.14695041 208.07779222 209.58580906 208.07255577 C204.25365242 208.06851684 198.9215241 208.06995433 193.58936882 208.07530403 C192.83090541 208.07605245 192.07244201 208.07680088 191.29099486 208.07757198 C189.75025165 208.07910343 188.20950844 208.08064178 186.66876524 208.08218694 C172.21490445 208.09591983 157.76109777 208.09046878 143.30723821 208.07900173 C130.0803034 208.06906859 116.85350845 208.08200998 103.62659521 208.10593592 C90.04933086 208.13031082 76.4721317 208.13993876 62.8948459 208.1332832 C55.27056495 208.12978737 47.64639159 208.13204689 40.02212715 208.14953423 C33.53168454 208.16423613 27.04142529 208.16491817 20.55098636 208.14746331 C17.23889458 208.13893408 13.9271991 208.13900708 10.6151123 208.15211487 C7.02593261 208.1652374 3.43765111 208.15385369 -0.15148926 208.13612366 C-1.2003164 208.14572866 -2.24914355 208.15533367 -3.32975334 208.16522974 C-7.78806291 208.11974333 -10.38399648 208.08895851 -14.25147343 205.72859287 C-17.60421369 201.98777013 -17.28104922 198.79209411 -17.28857422 193.98713684 C-17.29366204 193.18857956 -17.29874986 192.39002227 -17.30399185 191.56726629 C-17.31975778 188.87652119 -17.32825224 186.18580302 -17.33668518 183.49502563 C-17.34622019 181.57183154 -17.35611119 179.64863918 -17.36633301 177.72544861 C-17.39775486 171.39711553 -17.41798689 165.06876914 -17.4365387 158.74038696 C-17.43983602 157.66473677 -17.44313334 156.58908658 -17.44653058 155.48084092 C-17.47730955 145.34191811 -17.5040249 135.20299241 -17.52094936 125.06403637 C-17.54287203 112.08172012 -17.58487409 99.09981665 -17.65438694 86.11766547 C-17.701573 76.99660561 -17.72587562 67.87565735 -17.73314625 58.75447923 C-17.73811015 53.30306663 -17.75326141 47.85211896 -17.79289055 42.40083885 C-17.82967549 37.27320188 -17.83819333 32.14629693 -17.82488441 27.01855278 C-17.8249385 25.13554205 -17.83528904 23.25249955 -17.85663605 21.36960983 C-17.88421297 18.80006694 -17.87485816 16.23321327 -17.85620117 13.66365051 C-17.8729961 12.91695309 -17.88979103 12.17025567 -17.9070949 11.40093106 C-17.83654332 7.51776969 -17.20696702 5.73452264 -14.77792549 2.67280483 C-10.29685737 -0.47483089 -5.2781355 -0.05611377 0 0 Z M30.87205505 17.63491821 C29.6710501 21.23793307 29.51967367 22.83742351 31.05955505 26.32241821 C33.39117653 29.29724561 35.31885825 31.40392572 39.16209412 31.97549438 C39.97903748 31.95978394 40.79598083 31.94407349 41.63768005 31.92788696 C42.52713318 31.91821899 43.4165863 31.90855103 44.33299255 31.89859009 C45.71357849 31.86088501 45.71357849 31.86088501 47.12205505 31.82241821 C48.05791443 31.80888306 48.9937738 31.7953479 49.95799255 31.78140259 C52.26329836 31.74611729 54.56727986 31.69422591 56.87205505 31.63491821 C56.99750198 32.8909787 57.12294891 34.14703918 57.25219727 35.44116211 C57.86299618 40.91797002 58.80723147 46.31436977 59.78977966 51.73501587 C59.98178452 52.80773239 60.17378937 53.88044891 60.37161255 54.985672 C61.00283088 58.50732929 61.63843694 62.02817719 62.2743988 65.54898071 C62.71674267 68.00796693 63.15892463 70.46698228 63.60095215 72.92602539 C64.64437597 78.72605313 65.6909743 84.52550219 66.73864228 90.32476461 C67.57236787 94.94163176 68.40271569 99.55909749 69.23118591 104.1769104 C70.37669143 110.56154468 71.52569967 116.94553767 72.67759895 123.32902145 C73.11524628 125.75686557 73.55180348 128.18490645 73.98724174 130.61314774 C74.59636218 134.00726731 75.21005897 137.40052883 75.82493591 140.79360962 C76.00318909 141.79223526 76.18144226 142.7908609 76.36509705 143.81974792 C76.84093893 146.43086652 77.3484419 149.03302346 77.87205505 151.63491821 C78.12052689 152.9103952 78.36899872 154.18587219 78.625 155.5 C80.18916629 159.43209054 82.08808649 161.80175941 85.87205505 163.63491821 C89.20058882 164.32171513 92.43169937 164.30896988 95.8212738 164.26602173 C96.8073764 164.27317703 97.793479 164.28033234 98.8094635 164.28770447 C102.05996929 164.30457446 105.30909264 164.28519787 108.55955505 164.26382446 C110.82347223 164.26465331 113.08738934 164.2671133 115.3513031 164.27113342 C120.0924545 164.27399028 124.8331332 164.25930049 129.57420349 164.23184204 C135.64730194 164.19776009 141.71955519 164.20377889 147.79269409 164.22250462 C152.46648688 164.23308004 157.14008348 164.22413171 161.81385803 164.2091198 C164.05292681 164.20394155 166.29201611 164.20441543 168.53108215 164.21066475 C171.66211406 164.21612329 174.79194166 164.19572008 177.9228363 164.16836548 C178.84561371 164.17489136 179.76839111 164.18141724 180.71913147 164.18814087 C186.2161575 164.10660091 189.61935702 163.46917206 193.87205505 159.63491821 C195.24444996 157.44670622 195.24444996 157.44670622 195.91795349 154.95010376 C196.21703613 154.02051346 196.51611877 153.09092316 196.82426453 152.13316345 C197.27331146 150.62389534 197.27331146 150.62389534 197.73143005 149.08413696 C198.06447144 148.02627487 198.39751282 146.96841278 198.74064636 145.87849426 C199.80675348 142.47042161 200.8409065 139.053714 201.87205505 135.63491821 C202.56178104 133.39322758 203.25253088 131.15185171 203.94432068 128.91079712 C206.03602799 122.09930678 208.08155506 115.27438962 210.12205505 108.44741821 C211.16568203 104.96841937 212.21032252 101.48972629 213.25521851 98.0111084 C213.91730382 95.80517348 214.5782771 93.59890444 215.23803711 91.39227295 C217.18257406 84.89403247 219.17161164 78.41439175 221.26341248 71.96182251 C222.22024828 68.30373906 222.14030805 66.21586785 220.87205505 62.63491821 C218.11384782 59.20579571 216.18229915 57.3781854 211.87205505 56.63491821 C210.05565171 56.5468573 208.23630628 56.5129218 206.41777039 56.5146637 C205.31001755 56.51328903 204.20226471 56.51191437 203.0609436 56.51049805 C201.85037796 56.51409332 200.63981232 56.5176886 199.39256287 56.52139282 C198.11426102 56.5212468 196.83595917 56.52110077 195.5189209 56.52095032 C192.01718925 56.52066346 188.51549188 56.52654222 185.0137682 56.53352427 C181.35290513 56.53977633 177.69204128 56.54036308 174.03117371 56.54154968 C167.10039454 56.54465753 160.16963116 56.55286357 153.23885894 56.56289917 C145.34774559 56.57407726 137.45663148 56.57957504 129.56551218 56.58459461 C113.33435057 56.59504663 97.10320483 56.61263551 80.87205505 56.63491821 C80.67486626 55.23488304 80.67486626 55.23488304 80.47369385 53.80656433 C80.29811447 52.56728683 80.1225351 51.32800934 79.94163513 50.05117798 C79.76892593 48.8290712 79.59621674 47.60696442 79.41827393 46.3478241 C78.59186918 40.73036339 77.61511143 35.15081163 76.55955505 29.57241821 C76.37199646 28.48509399 76.18443787 27.39776978 75.99119568 26.27749634 C75.79074646 25.22884399 75.59029724 24.18019165 75.3837738 23.09976196 C75.21321472 22.16768921 75.04265564 21.23561646 74.8669281 20.27529907 C73.50996419 16.67393349 71.92722714 14.97174494 68.87205505 12.63491821 C66.14720126 12.13374785 64.05579065 11.9304661 61.34080505 11.97085571 C60.62726868 11.96607208 59.9137323 11.96128845 59.17857361 11.95635986 C57.67582483 11.95297011 56.17300139 11.96210814 54.6703949 11.98306274 C52.37786031 12.00985038 50.09021972 11.98329291 47.7978363 11.95132446 C46.33298181 11.95462874 44.86813035 11.96103535 43.40330505 11.97085571 C42.72296204 11.96073456 42.04261902 11.9506134 41.34165955 11.94018555 C36.18705751 12.06630262 34.02081407 13.65192916 30.87205505 17.63491821 Z M90.87205505 177.63491821 C88.82421541 181.20212275 87.8504609 183.57680482 87.93455505 187.69741821 C89.24509215 191.80376778 90.9603784 195.46711574 94.73924255 197.77554321 C98.46717328 199.27763984 101.93890686 199.40832719 105.87205505 198.63491821 C109.79705942 196.32652047 112.42293523 193.98227768 113.87205505 189.63491821 C114.24393868 184.61448928 114.00927957 181.63758397 110.87205505 177.63491821 C107.91298342 174.41475203 105.71794822 173.34368864 101.43455505 173.13491821 C96.91818428 173.36787577 94.2454704 174.5024611 90.87205505 177.63491821 Z M164.87205505 177.63491821 C162.82421541 181.20212275 161.8504609 183.57680482 161.93455505 187.69741821 C163.24531833 191.80447647 164.962643 195.46205085 168.7353363 197.77944946 C172.43765172 199.26172931 175.9622993 199.30574286 179.87205505 198.63491821 C183.02138796 196.96370773 185.13878478 194.63483223 187.24705505 191.75991821 C188.48355242 187.55582718 188.45821016 183.96147978 186.68455505 179.94741821 C183.08141472 175.34352142 183.08141472 175.34352142 177.7587738 173.24819946 C172.36864565 172.98548733 168.94080489 173.85679336 164.87205505 177.63491821 Z " fill="#E76D50" transform="translate(130.12794494628906,117.36508178710938)"/>
<path d="M0 0 C37.62 0 75.24 0 114 0 C110.62446158 13.50215368 110.62446158 13.50215368 109.20654297 18.19580078 C108.88966522 19.24953888 108.57278748 20.30327698 108.24630737 21.38894653 C107.91494781 22.4800473 107.58358826 23.57114807 107.2421875 24.6953125 C106.7194072 26.427314 106.7194072 26.427314 106.18606567 28.19430542 C105.45630514 30.60976881 104.72515944 33.02481412 103.99267578 35.43945312 C102.86782417 39.14866236 101.7480535 42.85937862 100.62890625 46.5703125 C99.9169636 48.92456898 99.20473447 51.27873885 98.4921875 53.6328125 C98.15677948 54.74415558 97.82137146 55.85549866 97.47579956 57.0005188 C97.00993942 58.53384354 97.00993942 58.53384354 96.53466797 60.09814453 C96.26169891 60.99904816 95.98872986 61.89995178 95.70748901 62.82815552 C95 65 95 65 94 67 C66.94 67 39.88 67 12 67 C10.63337592 62.90012776 9.60285139 59.43038719 8.85498047 55.25756836 C8.65492401 54.15299789 8.45486755 53.04842743 8.24874878 51.91038513 C7.93612595 50.14296715 7.93612595 50.14296715 7.6171875 48.33984375 C7.39805695 47.11721329 7.17892639 45.89458282 6.95315552 44.63490295 C6.37439623 41.3971864 5.80000084 38.15873113 5.22705078 34.91998291 C4.87496187 32.93728529 4.51943423 30.95523699 4.16259766 28.97338867 C3.47612919 25.15885681 2.79567589 21.34330224 2.1171875 17.52734375 C1.90472382 16.34704086 1.69226013 15.16673798 1.47335815 13.95066833 C1.27960602 12.84925003 1.08585388 11.74783173 0.88623047 10.61303711 C0.71461395 9.64740341 0.54299744 8.68176971 0.36618042 7.68687439 C0 5 0 5 0 0 Z " fill="#F1664C" transform="translate(215,194)"/>
<path d="M0 0 C33.33 0 66.66 0 101 0 C101 3.96 101 7.92 101 12 C67.67 12 34.34 12 0 12 C0 8.04 0 4.08 0 0 Z " fill="#C2507B" transform="translate(206,382)"/>
<path d="M0 0 C8.91 0 17.82 0 27 0 C27.33 6.27 27.66 12.54 28 19 C18.43 19 8.86 19 -1 19 C-1.020625 16.421875 -1.04125 13.84375 -1.0625 11.1875 C-1.071604 10.37949951 -1.08070801 9.57149902 -1.09008789 8.73901367 C-1.10246624 5.55618187 -1.01314559 3.03943678 0 0 Z " fill="#CD5271" transform="translate(243,344)"/>
</svg>
